<svg xmlns="http://www.w3.org/2000/svg" width="18.667" height="18.667" viewBox="0 0 18.667 18.667"><defs><style>.a{opacity:0.58;}.b{fill:#fff;}</style></defs><g class="a"><path class="b" d="M12.833,0h-7A5.834,5.834,0,0,0,0,5.833v7a5.834,5.834,0,0,0,5.833,5.833h7a5.834,5.834,0,0,0,5.833-5.833v-7A5.834,5.834,0,0,0,12.833,0Zm4.083,12.833a4.088,4.088,0,0,1-4.083,4.083h-7A4.088,4.088,0,0,1,1.75,12.833v-7A4.088,4.088,0,0,1,5.833,1.75h7a4.088,4.088,0,0,1,4.083,4.083Z"/><path class="b" d="M132.667,128a4.667,4.667,0,1,0,4.667,4.667A4.667,4.667,0,0,0,132.667,128Zm0,7.583a2.917,2.917,0,1,1,2.917-2.917A2.921,2.921,0,0,1,132.667,135.583Z" transform="translate(-123.333 -123.333)"/><ellipse class="b" cx="0.622" cy="0.622" rx="0.622" ry="0.622" transform="translate(13.728 3.695)"/></g></svg>