<svg xmlns="http://www.w3.org/2000/svg" width="67.563" height="66.993" viewBox="0 0 67.563 66.993"><defs><style>.a{fill:#e54b4e;fill-rule:evenodd;}</style></defs><path class="a" d="M32.3,28.15c2.392,4.987,9.65,5.168,11.937,0a13.488,13.488,0,0,1-1.551-1.985l-.225-.33a6.471,6.471,0,0,1-4.2,1.43,6.356,6.356,0,0,1-4.47-1.787l-.209-.187c-.165.467-.374,1.023-.6,1.54a9.122,9.122,0,0,1-.682,1.3ZM8.369,60.661,28.5,41.862c4.948,4.948,9.8,9.8,14.785,14.724l13.2-13.35-6.131-6.114,17.215-.159V54.327l-5.878-5.878Q52.5,57.73,43.316,66.99L28.394,52.232l-8.467,8.407ZM8.3,26.495l1.54-.038h.731l1.1,1.287c.264.3.55.6.819.9a16.9,16.9,0,0,1-1.946,1.781c-.363.308-.709.6-.973.841a34.447,34.447,0,0,0-5.68,2.6,5.658,5.658,0,0,0-2.315,2.243c-1.292,2.419-1,5.35-1.523,7.83-.159,2.2,0,2.073,1.534,2.045,4.311-.071,9.149-.077,13.647-.06l9.116-8.533.1-.093.038-.033.2-.165h0l.082-.066h.027l.11-.082h0l.121-.082h0l.1-.066h0l.093-.055h.044l.066-.038.049-.033.11-.06h0l.1-.06h.033l.082-.038.049-.027.115-.049h0l.1-.038h.044l.093-.038h0l.088-.033h.071l.088-.033h0l.1-.033h.946c.17,0,.341-.038.517-.044H28.96a5.713,5.713,0,0,1,1.413.346,6.048,6.048,0,0,1,2.3,1.545l.324.319,4.2,4.2h9.347l-.792-.792a6.1,6.1,0,0,1,4.789-10.4l4.844-.044c-2.623-1.177-8.33-1.649-10.749-3.37h0l-.049-.049a12.888,12.888,0,0,1-1.144-2.26c-.093-.143-.192-.291-.291-.429a18.766,18.766,0,0,0,2.722-3.75l2.2-3.651a.3.3,0,0,0,0-.06h0a4.318,4.318,0,0,0,.55-2.661A1.4,1.4,0,0,0,47.588,14.1h0l.121-5.047a7.533,7.533,0,0,0-1.9-4.767C43.662,1.95,39.1-.288,36.02.026c-.638.066.066,1.457-.55,1.649A10.414,10.414,0,0,0,32.721,2.9a7.461,7.461,0,0,0-3.3,4.19A7.934,7.934,0,0,0,29.18,8.35a50.393,50.393,0,0,0,.093,5.564,2.535,2.535,0,0,0-.473.236,1.93,1.93,0,0,0-.665.781,2.232,2.232,0,0,0-.187,1.012,5.663,5.663,0,0,0,1.1,2.826l1.946,3.1a23.577,23.577,0,0,0,1.924,2.749c-.176.5-.445,1.237-.737,1.908a8.055,8.055,0,0,1-.588,1.144c-2.15,1.474-6.851,2.023-9.715,2.947a18.413,18.413,0,0,1-1.726-1.649,12.382,12.382,0,0,0,1.32-1.424l.7-.836.143-.165.121-.148h1.523c2.238-4.795.819-11.915-3.766-14.933-1.408-.929-2.419-.891-4.063-.891A6.634,6.634,0,0,0,11.651,11.7C9.27,13.277,7.8,16,7.187,19.792c-.126,1.886-.209,5.152,1.1,6.675Zm9.226,8.143a8.049,8.049,0,0,1,.863-1.649,6.51,6.51,0,0,1,2.084-1.765,5.7,5.7,0,0,1,.66-.313,14.917,14.917,0,0,1-1.523-1.463h0a5.251,5.251,0,0,1-3.112.885,5.152,5.152,0,0,1-2.958-.863,5.3,5.3,0,0,1-.517-.39A17.957,17.957,0,0,1,11,30.932l-.17.137c-.077,2.749,3.645,4.256,6.7,3.557ZM30.395,14.794a1.913,1.913,0,0,0-.979.253.808.808,0,0,0-.275.346,1.1,1.1,0,0,0-.088.517,4.63,4.63,0,0,0,.918,2.232h0l1.946,3.1a16.665,16.665,0,0,0,2.617,3.436,5.35,5.35,0,0,0,3.728,1.5,5.5,5.5,0,0,0,3.948-1.567A17.072,17.072,0,0,0,44.9,20.941l2.2-3.612a3.637,3.637,0,0,0,.467-1.919c-.06-.22-.3-.324-.7-.346h-.577a.8.8,0,0,1-.165,0,3.216,3.216,0,0,1-.6-.033l.753-3.3c-5.581.88-9.743-3.255-15.626-.825l.423,3.937a3.337,3.337,0,0,1-.671-.027Zm-19.469,11c-1.254-4.349-.643-8.341,2.788-11.766a8.023,8.023,0,0,0,4.3,4.795,22.6,22.6,0,0,1,3.222,2.964c.187-.759-.517-1.682-1.369-2.634a4.173,4.173,0,0,1,2.029,1.985,5.531,5.531,0,0,1,.39,3.568,8.368,8.368,0,0,1-.242,1.1.423.423,0,0,0-.17.121l-.275.324-.143.176-.7.836A8.841,8.841,0,0,1,19.013,29a4.261,4.261,0,0,1-2.518.731,4.184,4.184,0,0,1-2.4-.7A8.8,8.8,0,0,1,12.4,27.374L11.134,25.9a.363.363,0,0,0-.187-.115Z" transform="translate(-0.001 0.004)"/></svg>