<svg xmlns="http://www.w3.org/2000/svg" xmlns:xlink="http://www.w3.org/1999/xlink" width="67" height="67" viewBox="0 0 67 67"><defs><style>.a{fill:#e54b4e;}.b{clip-path:url(#a);}</style><clipPath id="a"><rect class="a" width="67" height="67" transform="translate(-0.392)"/></clipPath></defs><g class="b" transform="translate(0.392)"><g transform="translate(-0.073 1.696)"><path class="a" d="M38.1,50.167l7.25,7.25a3.261,3.261,0,1,1-3.359,3.26,3.48,3.48,0,0,1,.049-.586l-6.307-6.3v4.636H31.218v-4.51l-6.406,6.411c.011.115.016.236.016.356h0a3.263,3.263,0,1,1-3.266-3.26,1.488,1.488,0,0,1,.159.005l7.25-7.25L0,50.167V4.121a.87.87,0,0,1,.882-.86H31.218V0h4.515V3.26H66.452a.874.874,0,0,1,.882.86v46.04H38.1Zm-23.365-15.8L27.481,21.9c3.156,3.156,6.28,6.28,9.469,9.431l8.444-8.548-3.918-3.918,11.025-.1V29.886l-3.765-3.765C44.813,30.094,40.906,34.056,36.971,38L27.415,28.56l-9.337,9.146-3.343-3.343ZM62.353,11.907H4.888V45.136H62.353V11.907Z"/></g></g></svg>