<svg xmlns="http://www.w3.org/2000/svg" xmlns:xlink="http://www.w3.org/1999/xlink" width="69" height="69" viewBox="0 0 69 69"><defs><style>.a{fill:#e54b4e;}.b{clip-path:url(#a);}</style><clipPath id="a"><rect class="a" width="69" height="69" transform="translate(0.216)"/></clipPath></defs><g class="b" transform="translate(-0.216)"><g transform="translate(0.038 7.041)"><path class="a" d="M50.309,36.03a.917.917,0,0,0-.711-.167.966.966,0,0,0-.611.395l-.845,1.19a5.716,5.716,0,0,0-.945-.317c-.334-.083-.645-.15-.978-.2l-.267-1.556a.969.969,0,0,0-.378-.611.894.894,0,0,0-.711-.15l-1.951.35a.97.97,0,0,0-.611.384.9.9,0,0,0-.167.711l.25,1.423a6.175,6.175,0,0,0-.895.461,7.767,7.767,0,0,0-.812.561l-1.323-.912a.879.879,0,0,0-.695-.167.952.952,0,0,0-.611.4l-1.128,1.606a.928.928,0,0,0,.233,1.323l1.19.845a5.715,5.715,0,0,0-.317.945c-.083.334-.15.645-.2.978l-1.556.267a.969.969,0,0,0-.611.378.894.894,0,0,0-.15.711l.35,1.951a.986.986,0,0,0,.378.611.9.9,0,0,0,.711.167l1.423-.25a6.176,6.176,0,0,0,.461.895c.167.283.367.561.561.828l-.912,1.306a.879.879,0,0,0-.167.695.966.966,0,0,0,.395.611l1.623,1.139a.907.907,0,0,0,.711.15,1.023,1.023,0,0,0,.628-.378l.845-1.206a5.716,5.716,0,0,0,.945.317c.334.083.645.15.978.2l.267,1.556a.969.969,0,0,0,.378.611.894.894,0,0,0,.711.15l1.951-.35a.986.986,0,0,0,.611-.378.9.9,0,0,0,.167-.711l-.25-1.423a6.175,6.175,0,0,0,.895-.461A9.034,9.034,0,0,0,50,50.348l1.306.912a.9.9,0,0,0,.711.167.925.925,0,0,0,.611-.395l1.139-1.623a.907.907,0,0,0,.15-.711,1.006,1.006,0,0,0-.384-.628l-1.206-.828a5.715,5.715,0,0,0,.317-.945c.083-.334.15-.645.2-.978l1.556-.267a.953.953,0,0,0,.611-.384.894.894,0,0,0,.15-.711L54.812,42a.986.986,0,0,0-.378-.611.9.9,0,0,0-.711-.167l-1.423.25a8.553,8.553,0,0,0-.461-.895,6.332,6.332,0,0,0-.561-.812l.912-1.323a.879.879,0,0,0,.167-.695.966.966,0,0,0-.395-.611l-1.606-1.128-.044.017Zm14.68-5.386-3.624.033a.956.956,0,0,1-.017-1.912l5.964-.061h.145l.022.006h.006l.022.006h.006l.022.006h.006l.017.006h.006l.017.006h.006l.017.006h.006l.017.006h.006l.017.006h.006l.017.006h.006l.017.006H67.7l.017.006h.006l.017.006h.006l.017.006h.006l.017.011h.006l.017.011h.006l.017.011h.006l.017.011h.006l.017.011h.006l.017.011H67.9l.017.011h.006l.017.011h.006l.017.011h.006l.017.011h.006L68,28.9h.006l.017.011h.006l.017.011.006.006.011.011.006.006.011.011h0l.011.011v.006l.011.017v.006l.011.017v.006l.011.017v.006l.011.017v.006l.011.017v.006l.011.017V29.1l.011.017v.006l.011.017v.006l.011.017v.006l.011.017v.006l.011.017v.006l.011.017v.006l.011.017v.006l.006.017v.006l.006.017V29.3l.006.017.006.017v.011l.006.017v.006l.006.017v.006l.006.017v.006l.006.017v.006l.006.017v.006l.006.022v.006l.006.022v.006l.006.022v.006l.006.022v.111l.028,6.164a.953.953,0,1,1-1.907.011l-.017-3.869-3.5,3.5a.959.959,0,1,1-1.356-1.356l3.435-3.485ZM32.039,1.934l-3.624.033A.953.953,0,1,1,28.4.061L34.368,0h.145l.022.006h.006l.022.006h.006l.022.006H34.6l.017.006h.006l.017.006h.006l.017.006h.006l.017.006h.006L34.7.044h.006l.017.006h.006l.017.006h.006l.017.006h.006l.017.006H34.8l.017.006h.006l.017.011h.006l.017.011h.006l.017.011h.006L34.9.117h.006l.017.011h.006l.017.011h.006l.017.011h.006l.017.011H35l.017.011h.006l.017.011h.006l.017.011h.006l.017.011h.006L35.1.217l.006.006.011.011.006.006.011.011V.256l.011.011V.272l.011.017V.295l.011.017V.317l.011.017V.339l.011.017V.361L35.2.378V.384L35.213.4V.406l.011.017V.428l.011.017V.45l.011.017V.472l.011.017V.495l.011.017V.517l.011.017V.539L35.24.556V.561l.006.017V.584L35.252.6V.606l.006.017.006.017V.65l.006.017V.673l.006.017V.695l.006.017V.717l.006.017V.739l.006.022V.767L35.3.789V.795L35.3.817V.823l.006.022V.984l.028,6.164a.953.953,0,1,1-1.907.006l-.017-3.869-3.5,3.5a.959.959,0,0,1-1.356-1.356l3.485-3.5Zm22.15,7.937-6.742.067a1.429,1.429,0,1,1-.022-2.857l10.244-.1h.161l.028.006h.006l.028.006H57.9L57.924,7h.006L57.958,7h.006l.028.006H58l.028.006h.006l.028.006h.006l.028.006H58.1l.028.011h.006l.028.011h.006l.028.011H58.2l.028.011h.006l.028.011h.006l.028.011H58.3l.028.011h.006l.028.011.006.006.028.011.006.006.022.017.006.006.022.017.006.006.022.017.006.006.022.017.006.006.022.017.006.006.022.017.006.006.022.017.006.006.022.017.006.006.022.017.006.006.022.017.006.006.022.022.006.006.022.022.006.006.022.022.006.006.017.022.006.006.017.022L58.8,7.5l.017.022.006.006.017.022.006.006.017.022.006.006.017.022.006.006.017.022.006.006.017.022.006.006.017.022v.006l.017.028v.006l.017.028L59,7.782v.006l.011.028v.006l.011.028v.006l.011.028v.006l.011.028v.006l.011.028v.006l.011.028v.006l.011.028v.006l.006.028v.006l.006.028v.006l.006.028v.006l.006.033.006.028v.006l.006.028v.006l.006.028v.006l.006.033V8.41L59.164,18.8a1.429,1.429,0,1,1-2.857.011l-.028-6.954-9.916,9.9a1.435,1.435,0,0,1-2.029-2.029l9.855-9.855Zm-9.56,30.76a3.989,3.989,0,0,1,1.54.033,3.777,3.777,0,0,1,2.385,1.673,3.612,3.612,0,0,1,.545,1.423,3.989,3.989,0,0,1-.033,1.54,3.777,3.777,0,0,1-1.673,2.385,3.612,3.612,0,0,1-1.423.545,3.989,3.989,0,0,1-1.54-.033,3.777,3.777,0,0,1-2.385-1.673A3.612,3.612,0,0,1,41.5,45.1a3.989,3.989,0,0,1,.033-1.54,3.777,3.777,0,0,1,1.673-2.385,3.733,3.733,0,0,1,1.423-.545ZM29.6,17.426a.678.678,0,0,0-.233-.167.65.65,0,0,0-.5,0,.848.848,0,0,0-.217.15l-.017.017L26.758,19.3a1.056,1.056,0,0,1-1.356.117c-.217-.133-.428-.267-.678-.395-.267-.133-.511-.267-.745-.384-.25-.117-.511-.233-.778-.334-.233-.083-.495-.183-.812-.283a1.066,1.066,0,0,1-.728-1.012V14.146a.635.635,0,0,0-.05-.267.575.575,0,0,0-.15-.2.784.784,0,0,0-.2-.15.635.635,0,0,0-.267-.05H17.4a1.009,1.009,0,0,0-.25.033.879.879,0,0,0-.233.167.468.468,0,0,0-.133.2.635.635,0,0,0-.05.267v2.635a1.09,1.09,0,0,1-.878,1.062c-.283.067-.545.133-.778.2-.267.083-.511.167-.778.267a7.546,7.546,0,0,0-.762.334c-.267.117-.495.25-.728.367a1.041,1.041,0,0,1-1.256-.183L9.483,16.775c-.017-.017-.017-.017-.017-.033a.784.784,0,0,0-.2-.15.5.5,0,0,0-.233-.033.557.557,0,0,0-.25.05.678.678,0,0,0-.233.167L6.031,19.31a.678.678,0,0,0-.167.233.65.65,0,0,0,0,.5.848.848,0,0,0,.15.217v.017L7.887,22.15A1.062,1.062,0,0,1,8,23.507c-.133.217-.267.428-.395.678-.133.267-.267.511-.384.745-.117.25-.233.511-.334.778-.083.233-.183.495-.283.812a1.066,1.066,0,0,1-1.012.728H2.746a.635.635,0,0,0-.267.05,1.391,1.391,0,0,0-.2.133.468.468,0,0,0-.133.2.635.635,0,0,0-.05.267v3.607a1.009,1.009,0,0,0,.033.25.88.88,0,0,0,.167.233.468.468,0,0,0,.2.133.635.635,0,0,0,.267.05H5.4a1.085,1.085,0,0,1,1.062.878c.067.283.133.545.2.762.083.267.167.528.267.795.1.25.2.511.334.778.133.283.25.528.367.762a1.04,1.04,0,0,1-.2,1.24L5.375,39.42l-.028-.011a.784.784,0,0,0-.15.2.494.494,0,0,0-.033.233.646.646,0,0,0,.217.484l2.5,2.535a.7.7,0,0,0,.233.15.691.691,0,0,0,.267.05.779.779,0,0,0,.283-.05,1.522,1.522,0,0,0,.217-.133l1.857-1.89a1.058,1.058,0,0,1,1.356-.133c.217.133.428.267.678.395.267.133.511.267.745.378.25.117.511.233.778.333.233.083.495.183.812.283a1.066,1.066,0,0,1,.728,1.012v2.863a.635.635,0,0,0,.05.267.838.838,0,0,0,.133.2.624.624,0,0,0,.478.183H20.1a1.009,1.009,0,0,0,.25-.033.879.879,0,0,0,.233-.167.468.468,0,0,0,.133-.2.635.635,0,0,0,.05-.267V43.467a1.09,1.09,0,0,1,.878-1.062c.283-.067.545-.133.778-.2.267-.083.511-.167.778-.267.25-.1.511-.2.778-.334.283-.133.528-.25.762-.367a1.04,1.04,0,0,1,1.24.2l2.034,2.051.017.017a.784.784,0,0,0,.2.15.57.57,0,0,0,.25.033.557.557,0,0,0,.25-.05.784.784,0,0,0,.2-.15c.017-.017.033-.033.05-.033l2.518-2.485a.7.7,0,0,0,.15-.233.691.691,0,0,0,.05-.267.779.779,0,0,0-.05-.283,1.523,1.523,0,0,0-.133-.217l-1.89-1.857a1.058,1.058,0,0,1-.133-1.356c.133-.217.267-.428.395-.678.133-.267.267-.511.384-.745.117-.25.233-.511.334-.778.083-.233.183-.495.283-.812a1.066,1.066,0,0,1,1.012-.728h2.863a.635.635,0,0,0,.267-.05.838.838,0,0,0,.2-.133.624.624,0,0,0,.183-.478V28.748a1.009,1.009,0,0,0-.033-.25.88.88,0,0,0-.167-.233.468.468,0,0,0-.2-.133.635.635,0,0,0-.267-.05H32.117a1.086,1.086,0,0,1-1.062-.895c-.067-.233-.133-.478-.2-.728-.083-.25-.167-.511-.283-.795,0-.017-.017-.033-.017-.05-.1-.267-.2-.495-.3-.728-.117-.25-.233-.495-.367-.728a1.041,1.041,0,0,1,.183-1.256l2.051-2.068c0-.017.017-.017.033-.017a.784.784,0,0,0,.15-.2.5.5,0,0,0,.033-.233.557.557,0,0,0-.05-.25.678.678,0,0,0-.167-.233l-2.535-2.518.011.044Zm.595-2.14a2.92,2.92,0,0,1,.912.611l2.535,2.518h.017a2.947,2.947,0,0,1,.611.895,2.652,2.652,0,0,1,.217,1.078,2.915,2.915,0,0,1-.217,1.078,2.577,2.577,0,0,1-.628.878l-1.49,1.506c.017.05.05.1.067.15.133.283.25.578.361.862,0,.017.017.033.017.05.117.283.217.595.317.928l.033.117h1.823a2.616,2.616,0,0,1,1.078.217,2.761,2.761,0,0,1,.895.611l.017.017a2.627,2.627,0,0,1,.595.895,2.875,2.875,0,0,1,.217,1.062v3.607a2.7,2.7,0,0,1-.812,1.984,2.742,2.742,0,0,1-.912.611,2.883,2.883,0,0,1-1.078.2H32.65c-.017.05-.05.117-.067.167-.117.3-.25.595-.378.895-.15.317-.283.611-.428.878l-.05.1,1.29,1.273.05.05a2.645,2.645,0,0,1,.578.912,2.872,2.872,0,0,1,0,2.107,2.906,2.906,0,0,1-.578.912l-.033.033L30.5,45.007a2.728,2.728,0,0,1-.895.628,2.622,2.622,0,0,1-1.1.217,3.074,3.074,0,0,1-1.1-.217,2.711,2.711,0,0,1-.895-.628l-1.473-1.49a.5.5,0,0,1-.167.067c-.283.117-.578.25-.895.367-.3.117-.611.217-.928.317a.392.392,0,0,1-.133.033v1.806a2.616,2.616,0,0,1-.217,1.078,2.761,2.761,0,0,1-.611.895l-.017.017a2.627,2.627,0,0,1-.895.595,2.875,2.875,0,0,1-1.062.217H16.514A2.7,2.7,0,0,1,14.53,48.1a2.742,2.742,0,0,1-.611-.912,2.884,2.884,0,0,1-.2-1.078V43.989c-.05-.017-.117-.05-.167-.067-.3-.117-.595-.25-.895-.384-.317-.15-.611-.283-.878-.428l-.1-.05-1.273,1.29-.05.05a2.645,2.645,0,0,1-.912.578,2.872,2.872,0,0,1-2.107,0,2.906,2.906,0,0,1-.912-.578l-.033-.033L3.858,41.8a2.947,2.947,0,0,1-.611-.895,2.652,2.652,0,0,1-.217-1.078,2.893,2.893,0,0,1,.217-1.078,3.105,3.105,0,0,1,.628-.895l1.49-1.473a.5.5,0,0,1-.067-.167c-.117-.283-.25-.578-.367-.895s-.233-.611-.317-.928l-.033-.133H2.8a2.6,2.6,0,0,1-1.078-.217,2.761,2.761,0,0,1-.895-.611l-.017-.017a2.627,2.627,0,0,1-.595-.895A3.1,3.1,0,0,1,0,31.444V27.837a2.969,2.969,0,0,1,.2-1.078,3.02,3.02,0,0,1,.611-.912,2.742,2.742,0,0,1,.912-.611,2.883,2.883,0,0,1,1.078-.2H4.919c.017-.05.05-.117.067-.167.117-.3.25-.595.378-.895.15-.317.283-.611.428-.878l.05-.1-1.273-1.29a2.584,2.584,0,0,1-.611-.912,2.709,2.709,0,0,1-.217-1.078,2.671,2.671,0,0,1,.217-1.078,2.92,2.92,0,0,1,.611-.912l2.518-2.535v-.017a2.947,2.947,0,0,1,.895-.611,2.652,2.652,0,0,1,1.078-.217,2.893,2.893,0,0,1,1.078.217,2.577,2.577,0,0,1,.878.628l1.506,1.49a.99.99,0,0,0,.133-.067c.283-.133.578-.25.895-.378.3-.117.611-.217.928-.317a.392.392,0,0,1,.133-.033V14.079A2.6,2.6,0,0,1,14.83,13a2.761,2.761,0,0,1,.611-.895l.017-.017a2.627,2.627,0,0,1,.895-.595,2.875,2.875,0,0,1,1.062-.217h3.607a2.969,2.969,0,0,1,1.078.2,2.66,2.66,0,0,1,.912.611,2.742,2.742,0,0,1,.611.912,2.883,2.883,0,0,1,.2,1.078V16.2c.05.017.117.05.167.067.3.117.595.25.895.384.317.15.611.283.878.428l.1.05,1.29-1.273a2.584,2.584,0,0,1,.912-.611,2.709,2.709,0,0,1,1.078-.217,2.652,2.652,0,0,1,1.078.217v.044ZM18.754,21.995a7.554,7.554,0,0,1,1.623.167,8.178,8.178,0,0,1,1.54.478,9.875,9.875,0,0,1,1.373.745,7.425,7.425,0,0,1,1.19.978,7.087,7.087,0,0,1,.978,1.206,7.3,7.3,0,0,1,.745,1.373c.017.033.017.067.033.083a7.669,7.669,0,0,1,.445,1.456,8.785,8.785,0,0,1,.167,1.623,7.554,7.554,0,0,1-.167,1.623,8.179,8.179,0,0,1-.478,1.54,9.874,9.874,0,0,1-.745,1.373,9.665,9.665,0,0,1-.978,1.206,7.088,7.088,0,0,1-1.206.978,7.3,7.3,0,0,1-1.373.745c-.033.017-.067.017-.083.033a7.669,7.669,0,0,1-1.456.445,8.785,8.785,0,0,1-1.623.167,7.553,7.553,0,0,1-1.623-.167,8.178,8.178,0,0,1-1.54-.478,9.875,9.875,0,0,1-1.373-.745,7.426,7.426,0,0,1-1.19-.978,7.087,7.087,0,0,1-.978-1.206,7.3,7.3,0,0,1-.745-1.373c-.017-.033-.017-.067-.033-.083a7.669,7.669,0,0,1-.445-1.456,8.785,8.785,0,0,1-.167-1.623,7.554,7.554,0,0,1,.167-1.623,8.178,8.178,0,0,1,.478-1.54,9.874,9.874,0,0,1,.745-1.373,8.369,8.369,0,0,1,.978-1.206,7.735,7.735,0,0,1,1.19-.978,7.3,7.3,0,0,1,1.373-.745c.033-.017.067-.017.083-.033a7.669,7.669,0,0,1,1.456-.445,8.785,8.785,0,0,1,1.623-.167h.017Zm1.212,2.251a5.693,5.693,0,0,0-1.206-.117,5.8,5.8,0,0,0-1.206.117,6.755,6.755,0,0,0-1.062.317c-.017.017-.033.017-.067.033a6.9,6.9,0,0,0-1.045.561,6.065,6.065,0,0,0-.878.711,5.126,5.126,0,0,0-.711.878,6.213,6.213,0,0,0-.561,1.045,5.937,5.937,0,0,0-.35,1.128,5.693,5.693,0,0,0-.117,1.206,5.8,5.8,0,0,0,.117,1.206,6.755,6.755,0,0,0,.317,1.062c.017.017.017.033.033.067a6.64,6.64,0,0,0,.561,1.045,6.065,6.065,0,0,0,.711.878,5.127,5.127,0,0,0,.878.711,6.212,6.212,0,0,0,1.045.561,5.938,5.938,0,0,0,1.128.35,5.693,5.693,0,0,0,1.206.117,5.8,5.8,0,0,0,1.206-.117,6.582,6.582,0,0,0,1.062-.317c.017-.017.033-.017.067-.033a6.9,6.9,0,0,0,1.045-.561,6.065,6.065,0,0,0,.878-.711,5.126,5.126,0,0,0,.711-.878,6.213,6.213,0,0,0,.561-1.045,5.938,5.938,0,0,0,.35-1.128,5.729,5.729,0,0,0,.117-1.206,5.8,5.8,0,0,0-.117-1.206,6.755,6.755,0,0,0-.317-1.062c-.017-.017-.017-.033-.033-.067a6.64,6.64,0,0,0-.561-1.045,6.065,6.065,0,0,0-.711-.878,5.126,5.126,0,0,0-.878-.711,6.212,6.212,0,0,0-1.045-.561,5.675,5.675,0,0,0-1.128-.35Z" transform="translate(0)"/></g></g></svg>